<svg width="720" height="576" xmlns="http://www.w3.org/2000/svg" xml:space="preserve" version="1.1">
 <g id="Layer_1">
  <title>Layer 1</title>
  <rect id="svg_5" height="576" width="720" y="-1" x="-0.33499" fill="#ffffff"/>
  <desc>Created with Fabric.js 5.3.0</desc>

  <g id="svg_3" transform="matrix(1.92115, 0, 0, 1.92115, 640, 401.164)">
   <g paint-order="stroke">
    <g transform="matrix(0.964331, 0, 0, 0.964331, -12.7368, 0)">
     <path fill-rule=" nonzero" fill=" rgb(127,195,209)" stroke-miterlimit="4" stroke-linejoin=" miter" stroke-dashoffset="0" stroke-dasharray=" none" stroke=" none" stroke-linecap=" butt" d="m13.72068,39.88589c0,-17.34844 14.06369,-31.41213 31.41212,-31.41213c2.09375,0 4.13898,0.20672 6.11809,0.59746c-0.18852,-1.76054 -0.39118,-3.5212 -0.612,-5.28205c-1.58678,-8.89018 -6.44069,-23.20701 -20.09883,-22.70044c0,0 -24.91416,-0.60756 -30.51125,-0.13529c0.67206,-3.29452 1.54579,-6.54994 2.61783,-9.73415c1.15054,0.0346 2.3257,-0.10904 3.48889,-0.45744c5.82111,-1.74353 9.12663,-7.87593 7.38309,-13.69703c-1.74356,-5.82113 -7.87595,-9.12665 -13.69705,-7.38309c-5.82114,1.74354 -9.12667,7.87593 -7.38311,13.69704c0.58626,1.9573 1.67022,3.62842 3.07019,4.9206c-1.6907,4.9333 -2.9508,10.02539 -3.7559,15.17766c-19.73381,6.43728 -39.46764,12.87455 -59.20148,19.31179c-7.67865,2.332 -13.30314,10.92375 -12.39508,18.84046c1.45556,12.24419 1.45551,24.26938 0.00004,36.51323c-0.90804,7.91669 4.71639,16.5085 12.39504,18.84051c22.17432,7.2334 44.34867,14.46675 66.523,21.70008c2.38815,0.70923 31.46579,0 31.46579,0c14.18623,0.50654 18.51205,-13.81031 20.09881,-22.7005c0.22083,-1.76084 0.42349,-3.52149 0.61202,-5.28203c-1.97911,0.39075 -4.02434,0.59746 -6.11809,0.59746c-17.34843,0 -31.41212,-14.06369 -31.41212,-31.41214zm-12.85584,25.70805c-1.1301,6.33159 -5.43481,18.80429 -14.31436,16.1673c-15.79255,-5.15158 -31.58512,-10.30316 -47.37765,-15.45481c-5.46874,-1.66084 -9.47445,-7.77992 -8.82774,-13.41818c1.03657,-8.72006 1.03663,-17.28441 -0.00002,-26.00471c-0.64672,-5.63827 3.35902,-11.75731 8.82776,-13.41816c15.79255,-5.15159 31.5851,-10.3032 47.37765,-15.45479c8.87952,-2.63701 13.18426,9.83567 14.31438,16.16723c2.15016,17.14624 2.15013,34.27015 -0.00002,51.41612zm-20.99571,-119.48335c1.99299,-16.0898 12.6494,-23.70375 23.80203,-25.30847c8.5902,-1.23602 17.71085,2.22816 23.31448,8.85525c5.60364,6.62709 7.50386,16.19664 4.8574,24.46196c-1.05323,-11.9572 -10.98331,-22.55504 -22.84679,-24.38308c-11.86347,-1.82806 -24.52324,5.28886 -29.12712,16.37434zm36.87629,-3.42567c3.2922,3.89349 4.40859,9.5157 2.85376,14.37164c-0.61877,-7.02497 -6.4528,-13.2513 -13.42272,-14.32531c-6.9699,-1.07399 -14.40764,3.10727 -17.11248,9.62011c1.1709,-9.45294 7.43166,-13.92621 13.98394,-14.86899c5.04682,-0.72619 10.4053,1.30906 13.6975,5.20255z" transform="translate(-136.792, -112.873)" paint-order="stroke"/>
    </g>
    <g transform="matrix(0.964331, 0, 0, 0.964331, -34.6817, 29.0046)">
     <path fill-rule=" nonzero" fill=" rgb(253,192,79)" stroke-miterlimit="4" stroke-linejoin=" miter" stroke-dashoffset="0" stroke-dasharray=" none" stroke=" none" stroke-linecap=" butt" d="m-52.78816,42.65572c-0.0716,5.16182 -2.06293,9.77397 -6.8539,8.93929c-6.08383,-1.06003 -5.73977,-14.18486 -3.69157,-18.12575c0.86829,-1.67026 2.25289,-2.84607 3.71078,-3.24262c0.90712,-0.24673 1.75119,-0.08465 2.5157,0.38266c-1.13582,1.48409 -1.81916,3.30065 -1.7839,5.16488c0.05779,3.0536 2.21875,6.03888 5.18877,6.7508c0.30081,0.07212 0.60694,0.11062 0.91412,0.13074zm43.25266,-1.25709c0.11822,6.68559 -1.68151,13.20529 -5.55294,17.36235c-5.21771,5.60266 -12.87498,4.54529 -16.65635,-2.05847c-5.50421,-9.61335 -6.71811,-28.27106 1.44558,-36.88016c2.67258,-2.81838 6.26285,-3.23186 9.59825,-1.34137c0.24067,0.13641 0.47625,0.28126 0.70943,0.43004c-1.72928,1.64044 -3.1033,3.64395 -3.91715,5.88214c-1.4102,3.87814 -1.04537,8.42199 1.20341,11.882c2.24876,3.45999 6.40493,5.66783 10.51745,5.32749c0.90753,-0.07511 1.79895,-0.28699 2.65232,-0.60402z" transform="translate(-114.036, -142.951)" paint-order="stroke"/>
    </g>
    <g transform="matrix(0.964331, 0, 0, 0.964331, 52.0047, 30.803)">
     <path fill-rule=" nonzero" fill=" rgb(253,192,79)" stroke-miterlimit="4" stroke-linejoin=" miter" stroke-dashoffset="0" stroke-dasharray=" none" stroke=" none" stroke-linecap=" butt" d="m67.3512,58.94544c5.67554,-4.46377 9.3249,-11.38779 9.3249,-19.16852c0,-13.46458 -10.91519,-24.37976 -24.37977,-24.37976c-13.46456,0 -24.37975,10.91518 -24.37975,24.37976c0,13.46456 10.91519,24.37973 24.37975,24.37973c0.03084,0 0.06116,-0.00219 0.09198,-0.00232c12.16063,7.47004 25.27844,1.87314 25.27844,1.87314c-5.32048,-0.82763 -8.61487,-4.5018 -10.31555,-7.08203zm-29.88927,-13.95955c-2.95869,0 -5.35718,-2.39848 -5.35718,-5.35716c0,-2.9587 2.39849,-5.35718 5.35718,-5.35718c2.95868,0 5.35716,2.39848 5.35716,5.35718c0,2.95868 -2.39848,5.35716 -5.35716,5.35716zm15.32974,0c-2.95869,0 -5.35717,-2.39848 -5.35717,-5.35716c0,-2.9587 2.39848,-5.35718 5.35717,-5.35718c2.9587,0 5.35718,2.39848 5.35718,5.35718c0,2.95868 -2.39848,5.35716 -5.35718,5.35716zm9.97258,-5.35716c0,-2.9587 2.39849,-5.35718 5.35717,-5.35718c2.95868,0 5.35716,2.39848 5.35716,5.35718c0,2.95868 -2.39848,5.35716 -5.35716,5.35716c-2.95868,0 -5.35717,-2.39848 -5.35717,-5.35716z" transform="translate(-203.928, -144.816)" paint-order="stroke"/>
    </g>
   </g>
  </g>
  <g id="svg_1" transform="matrix(1.92115, 0, 0, 1.92115, 630.774, 664.768)">
   <g paint-order="stroke">
    <g id="svg_2">
     <path fill-rule=" nonzero" fill=" rgb(127,195,209)" stroke-miterlimit="4" stroke-linejoin=" miter" stroke-dashoffset="0" stroke-dasharray=" none" stroke-width="0" stroke=" rgb(255,255,255)" stroke-linecap=" butt" d="m-103.33574,-101.46942l0,-34.89c0,-3.13 -4.16,-4.33 -5.82,-1.65l-12.76,19.89c-0.74,1.2 -2,1.2 -2.74,0l-12.77,-19.89c-1.65,-2.68 -5.81,-1.48 -5.81,1.65l0,34.89c0,1.25 1.02,2.28 2.28,2.28c1.25,0 2.28,-1.03 2.28,-2.28l0,-27.48c0,-1.42 0.63,-1.59 1.37,-0.4l11.57,18.02c1.08,1.82 3.82,1.82 4.9,0l11.57,-18.02c0.74,-1.19 1.37,-1.02 1.37,0.4l0,27.48c0,1.25 1.02,2.28 2.28,2.28c1.25,0 2.28,-1.03 2.28,-2.28zm-37.96,-34.15l0,0.06l0,-0.06zm36.02,0.06l0,-0.06l0,0.06zm45.66,33.35l-14.31,-35.12c-1.2,-3.02 -5.3,-3.02 -6.5,0l-14.3,35.12c-0.12,0.28 -0.18,0.57 -0.18,0.91c0,1.25 0.97,2.28 2.28,2.28c0.92,0 1.71,-0.57 2.06,-1.37l2.11,-5.19c0.51,-1.31 2.1,-2.39 3.53,-2.39l15.5,0c1.43,0 3.02,1.08 3.54,2.39l2.11,5.19c0.34,0.8 1.14,1.37 2.05,1.37c1.31,0 2.28,-1.03 2.28,-2.28c0,-0.34 -0.06,-0.63 -0.17,-0.91zm-25.03,-12.71l0,0l6.5,-15.91c0.52,-1.31 1.43,-1.31 1.94,0l6.5,15.91c0.51,1.31 -0.17,2.39 -1.6,2.39l-11.74,0c-1.42,0 -2.11,-1.08 -1.6,-2.39zm38.19,13.45l0,-27.82c0,-1.42 0.63,-1.59 1.43,-0.45l19.49,29.01c1.71,2.68 5.87,1.42 5.87,-1.83l0,-34.71c0,-1.25 -1.02,-2.28 -2.28,-2.28c-1.25,0 -2.28,1.03 -2.28,2.28l0,27.82c0,1.42 -0.62,1.59 -1.42,0.45l-19.49,-29.01c-1.71,-2.68 -5.88,-1.42 -5.88,1.82l0,34.72c0,1.25 1.03,2.28 2.28,2.28c1.26,0 2.28,-1.03 2.28,-2.28zm-2.45,-34.03l0.06,0.06l-0.06,-0.06zm27.08,32.2l0.06,0.06l-0.06,-0.06zm45.88,1.09l-14.3,-35.12c-1.2,-3.02 -5.31,-3.02 -6.5,0l-14.31,35.12c-0.11,0.28 -0.17,0.57 -0.17,0.91c0,1.25 0.97,2.28 2.28,2.28c0.91,0 1.71,-0.57 2.05,-1.37l2.11,-5.19c0.51,-1.31 2.11,-2.39 3.54,-2.39l15.5,0c1.42,0 3.02,1.08 3.53,2.39l2.11,5.19c0.34,0.8 1.14,1.37 2.05,1.37c1.31,0 2.28,-1.03 2.28,-2.28c0,-0.34 -0.05,-0.63 -0.17,-0.91zm-25.02,-12.71l0,0l6.5,-15.91c0.51,-1.31 1.42,-1.31 1.94,0l6.49,15.91c0.52,1.31 -0.17,2.39 -1.59,2.39l-11.74,0c-1.43,0 -2.11,-1.08 -1.6,-2.39zm38.19,13.45l0,-35.8c0,-1.25 -1.03,-2.28 -2.28,-2.28c-1.25,0 -2.28,1.03 -2.28,2.28l0,35.8c0,1.25 1.03,2.28 2.28,2.28c1.25,0 2.28,-1.03 2.28,-2.28z" transform="translate(-92.74, 19.8875)" paint-order="stroke"/>
    </g>
   </g>
  </g>
 </g>

</svg>